<svg width="150" height="150" viewBox="0 0 150 150" fill="none" xmlns="http://www.w3.org/2000/svg">
<g clip-path="url(#clip0_2_137)">
<path d="M142.607 119.369C144.637 117.089 146.16 115.315 146.921 113.795C150.981 107.206 152.25 100.365 152.25 100.365L147.175 101.378C147.175 101.378 153.011 95.0432 151.489 81.6131L146.414 86.9345C146.414 86.9345 151.235 73.251 147.175 60.5811L141.592 64.6354C141.592 64.6354 143.369 59.5675 141.846 56.0199L139.562 57.7937C139.562 57.7937 143.876 45.884 140.07 41.0694C137.786 48.1646 135.249 48.1646 135.249 48.1646C135.249 48.1646 138.294 42.8432 136.01 40.5626C133.472 44.617 131.442 42.083 131.442 40.816C131.696 39.2956 130.935 37.015 138.294 35.7481C132.457 32.2005 125.352 34.7345 125.352 34.7345C125.352 34.7345 125.606 30.9335 130.681 31.1869C125.86 27.1325 119.262 29.6665 119.262 29.6665C108.859 21.8112 94.9025 17.25 75.8712 17.25C57.0937 17.25 43.1375 21.8112 32.48 29.6665C32.48 29.6665 25.8825 27.3859 21.0612 31.1869C26.1362 30.9335 26.39 34.7345 26.39 34.7345C26.39 34.7345 19.5387 32.2005 13.4487 35.7481C20.8075 36.7616 20.3 39.0422 20.3 40.816C20.3 42.083 18.27 44.617 15.7325 40.5626C13.195 42.8432 16.4937 48.1646 16.4937 48.1646C16.4937 48.1646 13.9562 48.1646 11.6725 41.0694C7.86625 46.1374 12.18 57.7937 12.18 57.7937L9.89625 56.0199C8.37375 59.5675 10.15 64.6354 10.15 64.6354L5.075 60.5811C0.76125 73.251 5.83625 86.9345 5.83625 86.9345L1.015 81.6131C-0.76125 95.0432 5.075 101.378 5.075 101.378L0 100.365C0 100.365 1.26875 107.206 5.32875 113.795C5.83625 115.062 7.35875 117.089 9.6425 119.369L9.89625 119.623C20.3 130.012 45.9287 147.75 76.125 147.75C106.321 147.75 131.95 130.012 142.354 119.623C142.354 119.369 142.607 119.369 142.607 119.369Z" fill="#2F2E2D"/>
<path d="M10.5469 5.15625C2.34376 10.3125 2.57814 64.9219 12.4219 82.5L73.5938 45C64.2188 28.3594 18.2813 0.468753 10.5469 5.15625" fill="#2F2E2D"/>
<path d="M22.2656 26.4844C18.75 28.5938 17.1094 64.4531 23.2031 75.7031L62.3437 51.7969C56.7187 41.0156 25.5469 24.6094 22.2656 26.4844Z" fill="black"/>
<path d="M139.453 5.15625C147.656 10.3125 147.422 64.9219 137.812 82.5L76.6406 45C85.7813 28.3594 131.719 0.468753 139.453 5.15625" fill="#2F2E2D"/>
<path d="M127.734 26.4844C131.25 28.5937 132.891 64.4531 126.797 75.7031L87.4219 51.7969C93.2812 41.0156 124.453 24.6094 127.734 26.4844Z" fill="black"/>
<path d="M74.5312 30.7031C11.0156 30.7031 5.15625 76.1719 5.15625 101.953C5.15625 112.5 36.0937 145.313 74.5312 145.313C112.969 145.313 143.906 112.5 143.906 101.953C143.906 76.1719 138.047 30.7031 74.5312 30.7031" fill="#2F2E2D"/>
<path d="M56.7188 90.7031C56.7188 90.7031 49.4531 101.953 36.0938 98.4375C22.7344 94.9219 22.0312 81.5625 22.0312 81.5625C22.0312 81.5625 29.2969 70.3125 42.6563 73.8281C56.25 77.3437 56.7188 90.7031 56.7188 90.7031Z" fill="#71876D"/>
<path d="M55.3125 84.8438C55.3125 84.8438 48.9844 91.875 40.0781 91.875C30.4688 91.875 24.8438 78.0469 24.8438 78.0469C24.8438 78.0469 31.1719 70.7813 42.6563 73.5938C53.2031 76.4063 55.3125 84.8438 55.3125 84.8438Z" fill="#8CA687"/>
<path d="M45.4687 84.6094C45.4687 100.078 37.9688 100.078 37.9688 84.6094C38.2031 69.1406 45.4687 69.1406 45.4687 84.6094Z" fill="#4C5359"/>
<path d="M94.6875 103.125C88.5938 98.4375 82.0312 82.7344 74.5312 82.7344C67.0312 82.7344 60.2344 98.4375 54.1406 103.125C44.5312 110.625 18.9844 119.062 18.9844 119.062C18.9844 119.062 46.1719 142.969 74.2969 142.969C102.422 142.969 129.609 119.062 129.609 119.062C129.844 119.062 104.297 110.625 94.6875 103.125Z" fill="#2F2E2D"/>
<path d="M86.625 73.5C88.125 66 99 68.375 104.25 70.5C104.25 72 103.95 75.225 102.75 76.125C101.25 77.25 104.25 91.125 102.75 96C101.25 100.875 112.5 110.25 112.875 115.125C113.175 119.025 111 120.25 109.875 120.375C108 120 103.95 118.65 102.75 116.25C101.55 113.85 98.25 115.25 96.75 116.25C94.75 117.875 89.925 120.75 86.625 119.25C83.325 117.75 84.25 115.875 85.125 115.125C86.25 112.625 88.5 106.875 88.5 103.875C88.5 100.875 86.25 95.375 85.125 93C85 89.625 85.125 81 86.625 73.5Z" fill="#9D866C" stroke="#2F2E2D"/>
<path d="M92.3438 90.7031C92.3438 90.7031 99.6094 101.953 112.969 98.4375C126.328 94.9219 127.031 81.5625 127.031 81.5625C127.031 81.5625 119.766 70.3125 106.406 73.8281C92.8125 77.3437 92.3438 90.7031 92.3438 90.7031" fill="#71876D"/>
<path d="M93.5156 84.8438C93.5156 84.8438 99.8438 91.875 108.75 91.875C118.359 91.875 123.984 78.0469 123.984 78.0469C123.984 78.0469 117.656 70.7813 106.172 73.5938C95.625 76.4063 93.5156 84.8438 93.5156 84.8438Z" fill="#8CA687"/>
<path d="M103.359 84.6094C103.359 100.078 110.859 100.078 110.859 84.6094C110.859 69.1406 103.359 69.1406 103.359 84.6094Z" fill="#4C5359"/>
<path d="M74.5312 133.594C76.7318 133.594 78.5156 130.97 78.5156 127.734C78.5156 124.498 76.7318 121.875 74.5312 121.875C72.3307 121.875 70.5469 124.498 70.5469 127.734C70.5469 130.97 72.3307 133.594 74.5312 133.594Z" fill="#FF94A4"/>
<path d="M94.2187 124.453C91.875 125.859 89.2969 126.328 86.9531 126.328C84.375 126.094 82.0312 125.391 80.1562 123.75C78.2812 122.344 76.875 120.234 76.4062 117.656L74.5312 107.109L72.6562 117.656C72.1875 120 70.7812 122.109 68.9062 123.75C67.0312 125.391 64.4531 126.094 62.1094 126.328C59.5312 126.328 56.9531 125.859 54.8437 124.453C52.5 123.047 50.625 120.938 49.6875 118.125C49.9219 121.172 51.3281 123.984 53.6719 126.094C56.0156 128.203 59.0625 129.375 61.875 129.375C65.1562 129.609 68.2031 128.672 70.7812 126.797C72.1875 125.859 73.3594 124.453 74.2969 123.047C75.2344 124.453 76.4062 125.859 77.8125 126.797C80.3906 128.672 83.6719 129.609 86.7187 129.375C89.7656 129.141 92.8125 127.969 95.1562 126.094C97.5 123.984 99.1406 121.172 99.1406 118.125C98.4375 120.703 96.5625 123.047 94.2187 124.453Z" fill="#4C5359"/>
<path d="M83.9062 105C82.0312 102.656 76.1719 102.422 74.5312 102.422C72.8906 102.422 67.0312 102.656 65.1562 105C63.75 106.641 64.9219 110.859 68.4375 114.375C70.7812 116.719 72.8906 117.422 74.5312 117.422C76.1719 117.422 78.5156 116.719 80.625 114.375C84.1406 110.625 85.3125 106.641 83.9062 105Z" fill="#4C5359"/>
<path d="M73.125 136.875C71.625 136.575 68.25 139.25 66.75 140.625H83.25L78.75 136.875C77.5 137 74.625 137.175 73.125 136.875Z" fill="#9D866C"/>
</g>
<defs>
<clipPath id="clip0_2_137">
<rect width="150" height="150" fill="white"/>
</clipPath>
</defs>
</svg>
