<svg width="25" height="33" viewBox="0 0 25 33" fill="none" xmlns="http://www.w3.org/2000/svg">
<path fill-rule="evenodd" clip-rule="evenodd" d="M1.20946 32.0503C1.33139 32.1725 1.47623 32.2694 1.63569 32.3356C1.79516 32.4017 1.96611 32.4358 2.13875 32.4358C2.3114 32.4358 2.48235 32.4017 2.64181 32.3356C2.80128 32.2694 2.94612 32.1725 3.06804 32.0503L12.6392 22.4783L22.2103 32.0503C22.4568 32.2967 22.7911 32.4351 23.1396 32.4351C23.4882 32.4351 23.8225 32.2967 24.0689 32.0503C24.3154 31.8038 24.4539 31.4696 24.4539 31.1211C24.4539 30.7727 24.3154 30.4384 24.0689 30.192L13.5685 19.6936C13.4466 19.5714 13.3017 19.4744 13.1423 19.4083C12.9828 19.3421 12.8118 19.3081 12.6392 19.3081C12.4665 19.3081 12.2956 19.3421 12.1361 19.4083C11.9767 19.4744 11.8318 19.5714 11.7099 19.6936L1.20946 30.192C1.08723 30.3139 0.990252 30.4587 0.924083 30.6182C0.857913 30.7776 0.823853 30.9485 0.823853 31.1211C0.823853 31.2938 0.857913 31.4647 0.924083 31.6241C0.990252 31.7835 1.08723 31.9283 1.20946 32.0503V32.0503ZM1.20946 1.32133C1.33139 1.19912 1.47623 1.10216 1.63569 1.036C1.79516 0.969845 1.96611 0.935791 2.13875 0.935791C2.3114 0.935791 2.48235 0.969845 2.64181 1.036C2.80128 1.10216 2.94612 1.19912 3.06804 1.32133L12.6392 10.8933L22.2103 1.32133C22.4568 1.07491 22.7911 0.936479 23.1396 0.936479C23.4882 0.936479 23.8225 1.07491 24.0689 1.32133C24.3154 1.56775 24.4539 1.90196 24.4539 2.25044C24.4539 2.59893 24.3154 2.93314 24.0689 3.17955L13.5685 13.678C13.4466 13.8002 13.3017 13.8972 13.1423 13.9633C12.9828 14.0295 12.8118 14.0635 12.6392 14.0635C12.4665 14.0635 12.2956 14.0295 12.1361 13.9633C11.9767 13.8972 11.8318 13.8002 11.7099 13.678L1.20946 3.17955C1.08723 3.05765 0.990252 2.91284 0.924083 2.75341C0.857913 2.59397 0.823853 2.42305 0.823853 2.25044C0.823853 2.07783 0.857913 1.90691 0.924083 1.74748C0.990252 1.58805 1.08723 1.44323 1.20946 1.32133V1.32133Z" fill="black"/>
</svg>
