<svg viewBox="0 0 24 24" fill="none" xmlns="http://www.w3.org/2000/svg"><path d="M8.789 19.04l-1.215 1.207a2.721 2.721 0 01-3.818 0 2.644 2.644 0 010-3.756l4.47-4.433c.926-.92 2.668-2.272 3.939-1.012a1.488 1.488 0 102.096-2.11c-2.157-2.143-5.35-1.747-8.129 1.012l-4.47 4.434A5.578 5.578 0 000 18.369a5.58 5.58 0 001.662 3.987A5.669 5.669 0 005.666 24a5.66 5.66 0 004.003-1.644l1.216-1.208a1.483 1.483 0 00-1.042-2.538 1.493 1.493 0 00-1.054.43zM22.337 1.812c-2.321-2.3-5.564-2.425-7.709-.295L13.114 3.02A1.486 1.486 0 1015.21 5.13l1.515-1.502c1.11-1.104 2.566-.646 3.518.296.505.502.784 1.168.784 1.878s-.28 1.375-.784 1.876l-4.77 4.731c-2.18 2.162-3.204 1.15-3.64.716a1.486 1.486 0 10-2.094 2.109c1.002.993 2.145 1.485 3.342 1.485 1.466 0 3.015-.738 4.49-2.2l4.77-4.73A5.597 5.597 0 0024 5.802a5.59 5.59 0 00-1.663-3.989z" fill="#000"/></svg>