<svg width="22" height="22" viewBox="0 0 22 22" fill="none" xmlns="http://www.w3.org/2000/svg">
<mask id="mask0_532_2799" style="mask-type:luminance" maskUnits="userSpaceOnUse" x="0" y="0" width="22" height="22">
<path d="M0 0H22V22H0V0Z" fill="white"/>
<path d="M3.9668 9.56661C3.90016 9.47648 3.8521 9.37402 3.82539 9.26516C3.79869 9.1563 3.79388 9.04323 3.81124 8.93249C3.8286 8.82176 3.86779 8.71559 3.92653 8.62013C3.98526 8.52467 4.06238 8.44183 4.1534 8.37642C4.24442 8.31101 4.34753 8.26434 4.45674 8.23912C4.56595 8.21389 4.67908 8.21061 4.78956 8.22947C4.90005 8.24833 5.00569 8.28896 5.10034 8.34898C5.195 8.40901 5.27678 8.48725 5.34095 8.57914C5.59818 8.93707 5.99503 9.27891 6.50864 9.57507C7.60272 10.2063 9.11903 10.5769 10.7496 10.5769C12.3809 10.5769 13.8973 10.2063 14.9913 9.57507C15.5049 9.27891 15.9018 8.93707 16.159 8.57914C16.2232 8.48725 16.305 8.40901 16.3996 8.34898C16.4943 8.28896 16.5999 8.24833 16.7104 8.22947C16.8209 8.21061 16.934 8.21389 17.0432 8.23912C17.1524 8.26434 17.2556 8.31101 17.3466 8.37642C17.4376 8.44183 17.5147 8.52467 17.5735 8.62013C17.6322 8.71559 17.6714 8.82176 17.6887 8.93249C17.7061 9.04323 17.7013 9.1563 17.6746 9.26516C17.6479 9.37402 17.5998 9.47648 17.5332 9.56661C17.127 10.1327 16.5483 10.6302 15.8375 11.0406C14.4735 11.8275 12.6661 12.2692 10.7496 12.2692C8.83387 12.2692 7.02649 11.8275 5.66249 11.0406C4.95172 10.6302 4.37295 10.1327 3.9668 9.56661Z" fill="black"/>
<path d="M11.8462 11.8462C11.8462 11.6217 11.757 11.4065 11.5983 11.2478C11.4396 11.0892 11.2244 11 11 11C10.7756 11 10.5604 11.0892 10.4017 11.2478C10.243 11.4065 10.1539 11.6217 10.1539 11.8462V13.9615C10.1539 14.186 10.243 14.4012 10.4017 14.5599C10.5604 14.7186 10.7756 14.8077 11 14.8077C11.2244 14.8077 11.4396 14.7186 11.5983 14.5599C11.757 14.4012 11.8462 14.186 11.8462 13.9615V11.8462ZM7.2177 11.6414C7.2752 11.4271 7.41459 11.2439 7.60584 11.1314C7.79709 11.0188 8.0249 10.9859 8.24017 11.0398C8.45545 11.0936 8.64097 11.2298 8.75676 11.4191C8.87256 11.6084 8.90936 11.8356 8.85924 12.0518L8.43616 13.7441C8.41079 13.8535 8.36387 13.9568 8.29816 14.0479C8.23245 14.139 8.14925 14.2162 8.05342 14.2748C7.95759 14.3334 7.85104 14.3723 7.74 14.3894C7.62896 14.4064 7.51564 14.4011 7.40665 14.3739C7.29767 14.3466 7.1952 14.2979 7.10522 14.2307C7.01525 14.1634 6.93957 14.0789 6.8826 13.9821C6.82563 13.8852 6.78851 13.7781 6.7734 13.6667C6.7583 13.5554 6.76551 13.4422 6.79462 13.3337L7.2177 11.6414ZM14.3592 11.6414C14.3017 11.4271 14.1623 11.2439 13.9711 11.1314C13.7798 11.0188 13.552 10.9859 13.3368 11.0398C13.1215 11.0936 12.936 11.2298 12.8202 11.4191C12.7044 11.6084 12.6676 11.8356 12.7177 12.0518L13.1408 13.7441C13.1662 13.8535 13.2131 13.9568 13.2788 14.0479C13.3445 14.139 13.4277 14.2162 13.5235 14.2748C13.6193 14.3334 13.7259 14.3723 13.8369 14.3894C13.948 14.4064 14.0613 14.4011 14.1703 14.3739C14.2793 14.3466 14.3817 14.2979 14.4717 14.2307C14.5617 14.1634 14.6374 14.0789 14.6943 13.9821C14.7513 13.8852 14.7884 13.7781 14.8035 13.6667C14.8186 13.5554 14.8114 13.4422 14.7823 13.3337L14.3592 11.6414ZM16.5212 9.55562C16.4431 9.47481 16.3497 9.41034 16.2465 9.366C16.1433 9.32165 16.0322 9.29831 15.9199 9.29733C15.8075 9.29636 15.6961 9.31777 15.5921 9.36031C15.4881 9.40286 15.3937 9.46569 15.3142 9.54514C15.2348 9.62458 15.1719 9.71906 15.1294 9.82305C15.0868 9.92704 15.0654 10.0385 15.0664 10.1508C15.0674 10.2632 15.0907 10.3742 15.1351 10.4774C15.1794 10.5807 15.2439 10.674 15.3247 10.7521L17.017 12.4444C17.1766 12.5985 17.3903 12.6838 17.6122 12.6819C17.8341 12.68 18.0463 12.591 18.2032 12.4341C18.36 12.2772 18.449 12.065 18.451 11.8431C18.4529 11.6213 18.3676 11.4075 18.2135 11.2479L16.5212 9.55562ZM5.14293 9.58439C5.29396 9.41833 5.50478 9.31906 5.729 9.30843C5.95322 9.29779 6.17248 9.37667 6.33855 9.5277C6.50461 9.67873 6.60388 9.88955 6.61451 10.1138C6.62514 10.338 6.54627 10.5572 6.39524 10.7233L4.85693 12.4156C4.78215 12.4979 4.6919 12.5645 4.59134 12.6119C4.49079 12.6592 4.38189 12.6863 4.27086 12.6916C4.15984 12.6969 4.04887 12.6802 3.94428 12.6426C3.8397 12.605 3.74354 12.5471 3.66132 12.4723C3.57909 12.3975 3.51239 12.3073 3.46504 12.2067C3.41769 12.1062 3.39061 11.9973 3.38535 11.8862C3.38008 11.7752 3.39674 11.6643 3.43436 11.5597C3.47199 11.4551 3.52984 11.3589 3.60462 11.2767L5.14293 9.58439Z" fill="black"/>
</mask>
<g mask="url(#mask0_532_2799)">
<path d="M11 22C17.0751 22 22 17.0751 22 11C22 4.92487 17.0751 0 11 0C4.92487 0 0 4.92487 0 11C0 17.0751 4.92487 22 11 22Z" fill="#061EF2"/>
</g>
</svg>
