<svg width="150" height="150" viewBox="0 0 150 150" fill="none" xmlns="http://www.w3.org/2000/svg">
<path d="M56.0203 109.193C71.2189 92.6912 85.9145 45.2353 51.7342 13.754C17.5538 -17.7272 -15.0607 15.4822 22.9362 50.4785" fill="#AF773F"/>
<path d="M98.2345 13.7575C96.337 15.5002 94.5386 17.3478 92.8479 19.2917C87.0443 17.5291 81.0121 16.6336 74.9467 16.6342C42.4098 16.6342 16.0339 42.2051 16.0339 69.431C16.0339 73.0925 16.5117 76.6605 17.4176 80.0941C19.086 86.4182 19.8639 92.9382 19.8811 99.4787C19.8814 99.566 19.882 99.6536 19.8832 99.7412C20.0557 112.501 30.4737 122.927 43.2337 123.105C49.4742 123.193 55.1695 120.866 59.4486 117C64.3875 118.124 69.5827 118.728 74.947 118.728C80.3112 118.728 85.5064 118.124 90.4453 117C94.7241 120.866 100.419 123.193 106.66 123.105C119.42 122.927 129.838 112.502 130.01 99.7415C130.012 99.6536 130.012 99.566 130.012 99.4784C130.029 92.9379 130.808 86.4173 132.476 80.093C133.395 76.6134 133.86 73.0296 133.859 69.4307C133.859 62.3001 132.047 55.2841 128.792 48.8101C163.973 14.4806 131.887 -17.1882 98.2345 13.7575Z" fill="#D19B61"/>
<path d="M121.356 58.5732C123.054 49.9219 117.417 41.5321 108.766 39.8344C100.114 38.1366 91.7247 43.7736 90.027 52.425V52.4259L90.0267 52.4256C88.309 58.1432 89.3121 59.9701 88.592 65.4659C87.823 71.337 86.8395 69.8493 85.4731 76.8114C83.4355 87.1945 90.2007 97.2636 100.584 99.3012C110.784 101.303 120.675 94.8064 122.953 84.733C122.996 84.559 123.037 84.3797 123.074 84.1904C125.176 73.4795 119.428 68.3974 121.356 58.5732Z" fill="#AF773F"/>
<path d="M86.657 129.831C86.657 138.798 81.414 146.067 74.9464 146.067C68.4788 146.067 63.2359 138.798 63.2359 129.831C63.2359 120.865 68.4788 113.595 74.9464 113.595C81.414 113.595 86.657 120.865 86.657 129.831ZM122.946 39.6542L123.829 38.09C144.258 19.3049 126.75 1.4499 108.374 18.348C106.522 20.0508 104.941 21.8423 103.596 23.6938C111.262 27.7107 117.875 33.2212 122.946 39.6542V39.6542ZM26.1199 38.0663L26.9865 39.6044C32.0643 33.1781 38.6819 27.6747 46.3503 23.666C45.0097 21.8203 43.435 20.0347 41.5913 18.3366C23.2283 1.42383 5.70676 19.265 26.1199 38.0663V38.0663Z" fill="#FFA1E0"/>
<path d="M107.616 103.908C105.396 95.6218 99.1887 89.5582 91.8911 87.5335V71.1841C91.8911 61.8258 84.3047 54.2397 74.9467 54.2397C65.5887 54.2397 58.0023 61.8261 58.0023 71.1841V87.5335C50.7047 89.5582 44.4979 95.6218 42.2777 103.908C39.0398 115.991 45.5057 128.222 56.7191 131.227C62.8427 132.868 69.1122 131.412 74.0725 127.789V113.596H75.8212V127.789C80.7815 131.412 87.051 132.868 93.1746 131.227C104.388 128.222 110.854 115.991 107.616 103.908Z" fill="#EADFD6"/>
<path d="M55.9037 118.728C55.9037 118.45 56.0142 118.183 56.2107 117.986C56.4073 117.79 56.674 117.679 56.952 117.679C57.23 117.679 57.4966 117.79 57.6932 117.986C57.8898 118.183 58.0002 118.45 58.0002 118.728C58.0002 119.006 57.8898 119.272 57.6932 119.469C57.4966 119.665 57.23 119.776 56.952 119.776C56.674 119.776 56.4073 119.665 56.2107 119.469C56.0142 119.272 55.9037 119.006 55.9037 118.728ZM54.5297 108.219C54.8077 108.219 55.0743 108.108 55.2709 107.912C55.4675 107.715 55.5779 107.448 55.5779 107.17C55.5779 106.892 55.4675 106.626 55.2709 106.429C55.0743 106.233 54.8077 106.122 54.5297 106.122C54.2517 106.122 53.9851 106.233 53.7885 106.429C53.5919 106.626 53.4815 106.892 53.4815 107.17C53.4815 107.448 53.5919 107.715 53.7885 107.912C53.9851 108.108 54.2517 108.219 54.5297 108.219ZM48.1169 115.692C48.3949 115.692 48.6615 115.582 48.8581 115.385C49.0547 115.189 49.1652 114.922 49.1652 114.644C49.1652 114.366 49.0547 114.099 48.8581 113.903C48.6615 113.706 48.3949 113.596 48.1169 113.596C47.8389 113.596 47.5723 113.706 47.3757 113.903C47.1791 114.099 47.0687 114.366 47.0687 114.644C47.0687 114.922 47.1791 115.189 47.3757 115.385C47.5723 115.582 47.8389 115.692 48.1169 115.692V115.692ZM92.8365 106.122C92.5585 106.122 92.2919 106.232 92.0953 106.429C91.8987 106.625 91.7883 106.892 91.7883 107.17C91.7883 107.448 91.8987 107.715 92.0953 107.911C92.2919 108.108 92.5585 108.218 92.8365 108.218C93.1145 108.218 93.3812 108.108 93.5778 107.911C93.7743 107.715 93.8848 107.448 93.8848 107.17C93.8848 106.892 93.7743 106.625 93.5778 106.429C93.3812 106.232 93.1145 106.122 92.8365 106.122V106.122ZM95.2588 117.679C94.9808 117.679 94.7142 117.79 94.5176 117.986C94.321 118.183 94.2106 118.45 94.2106 118.728C94.2106 119.006 94.321 119.272 94.5176 119.469C94.7142 119.665 94.9808 119.776 95.2588 119.776C95.5368 119.776 95.8034 119.665 96 119.469C96.1966 119.272 96.307 119.006 96.307 118.728C96.307 118.45 96.1966 118.183 96 117.986C95.8034 117.79 95.5368 117.679 95.2588 117.679V117.679ZM101.672 110.206C101.394 110.206 101.127 110.316 100.93 110.513C100.734 110.709 100.623 110.976 100.623 111.254C100.623 111.532 100.734 111.799 100.93 111.995C101.127 112.192 101.394 112.302 101.672 112.302C101.95 112.302 102.216 112.192 102.413 111.995C102.609 111.799 102.72 111.532 102.72 111.254C102.72 110.976 102.609 110.709 102.413 110.513C102.216 110.316 101.95 110.206 101.672 110.206Z" fill="#AF773F"/>
<path d="M43.9799 61.5902C48.1822 61.5902 51.5889 64.9969 51.5889 69.1992V80.5251C51.5889 84.7274 48.1822 88.1341 43.9799 88.1341C39.7775 88.1341 36.3709 84.7274 36.3709 80.5251V69.1992C36.3709 64.9969 39.7775 61.5902 43.9799 61.5902V61.5902ZM105.913 61.5902C101.711 61.5902 98.3042 64.9969 98.3042 69.1992V80.5251C98.3042 84.7274 101.711 88.1341 105.913 88.1341C110.116 88.1341 113.522 84.7274 113.522 80.5251V69.1992C113.522 64.9969 110.116 61.5902 105.913 61.5902V61.5902ZM81.4796 102.618C81.4796 102.618 78.2605 102.733 75.0413 102.78L68.6033 102.618C67.1924 102.59 65.7586 103.184 64.7915 104.358C63.1116 106.396 63.4026 109.411 65.4413 111.091L68.6033 113.696C68.6033 113.696 69.4081 114.359 70.6154 114.913C71.219 115.112 71.9233 115.424 72.6776 115.615L74.0728 115.781V127.789C74.3696 127.573 74.6611 127.349 74.947 127.119C75.2329 127.349 75.5244 127.573 75.8212 127.789V115.899C76.3617 115.85 76.8952 115.719 77.4056 115.682C78.16 115.672 78.8643 115.216 79.4678 115.014C80.6751 114.484 81.4799 113.696 81.4799 113.696L84.8394 110.406C85.2887 109.964 85.6409 109.433 85.8737 108.847C86.1065 108.262 86.2147 107.634 86.1914 107.004C86.1009 104.491 83.9915 102.528 81.4796 102.618V102.618Z" fill="#2B3B47"/>
</svg>
