<svg viewBox="0 0 24 32" fill="none" xmlns="http://www.w3.org/2000/svg">
<path fill-rule="evenodd" clip-rule="evenodd" d="M0.570777 19.0083C0.692697 18.8861 0.837533 18.7891 0.996989 18.7229C1.15644 18.6567 1.32739 18.6227 1.50003 18.6227C1.67267 18.6227 1.84361 18.6567 2.00307 18.7229C2.16252 18.7891 2.30736 18.8861 2.42928 19.0083L12 28.5817L21.5708 19.0083C21.8172 18.7618 22.1515 18.6234 22.5 18.6234C22.8486 18.6234 23.1828 18.7618 23.4293 19.0083C23.6757 19.2547 23.8142 19.589 23.8142 19.9375C23.8142 20.2861 23.6757 20.6203 23.4293 20.8668L12.9293 31.3668C12.8074 31.489 12.6625 31.586 12.5031 31.6522C12.3436 31.7183 12.1727 31.7524 12 31.7524C11.8274 31.7524 11.6564 31.7183 11.497 31.6522C11.3375 31.586 11.1927 31.489 11.0708 31.3668L0.570777 20.8668C0.448548 20.7449 0.351574 20.6 0.285407 20.4406C0.21924 20.2811 0.185181 20.1102 0.185181 19.9375C0.185181 19.7649 0.21924 19.5939 0.285407 19.4345C0.351574 19.275 0.448548 19.1302 0.570777 19.0083V19.0083ZM0.570777 12.9918C0.692697 13.114 0.837533 13.211 0.996989 13.2772C1.15644 13.3433 1.32739 13.3774 1.50003 13.3774C1.67267 13.3774 1.84361 13.3433 2.00307 13.2772C2.16252 13.211 2.30736 13.114 2.42928 12.9918L12 3.4184L21.5708 12.9918C21.8172 13.2382 22.1515 13.3767 22.5 13.3767C22.8486 13.3767 23.1828 13.2382 23.4293 12.9918C23.6757 12.7453 23.8142 12.4111 23.8142 12.0625C23.8142 11.714 23.6757 11.3797 23.4293 11.1333L12.9293 0.633277C12.8074 0.511048 12.6625 0.414074 12.5031 0.347907C12.3436 0.28174 12.1727 0.247681 12 0.247681C11.8274 0.247681 11.6564 0.28174 11.497 0.347907C11.3375 0.414074 11.1927 0.511048 11.0708 0.633277L0.570777 11.1333C0.448548 11.2552 0.351574 11.4 0.285407 11.5595C0.21924 11.7189 0.185181 11.8899 0.185181 12.0625C0.185181 12.2352 0.21924 12.4061 0.285407 12.5656C0.351574 12.725 0.448548 12.8699 0.570777 12.9918V12.9918Z" fill="black"/>
</svg>
