<svg width="150" height="150" viewBox="0 0 150 150" fill="none" xmlns="http://www.w3.org/2000/svg">
<path d="M142.734 4.6875C146.953 36.0937 146.25 61.4062 139.922 77.5781L81.7969 34.4531C93.2813 22.5 116.719 8.20312 142.734 4.6875Z" fill="#DADEE0"/>
<path d="M135.234 75.4688L111.328 44.2969C111.328 44.2969 115.781 27.1875 138.516 15.2344C145.312 42.4219 135.234 75.4688 135.234 75.4688" fill="#F7A4A4"/>
<path d="M126.094 68.4375L111.328 49.2187C111.328 49.2187 117.422 37.5 131.484 30C123.281 47.5781 126.094 68.4375 126.094 68.4375" fill="#F78D8D"/>
<path d="M7.26562 4.6875C3.04687 36.0937 3.75 61.4062 10.0781 77.5781L68.2031 34.2187C56.7187 22.5 33.2812 8.20312 7.26562 4.6875Z" fill="#DADEE0"/>
<path d="M14.7656 75.4688L38.9062 44.2969C38.9062 44.2969 34.4531 27.1875 11.7187 15.2344C4.6875 42.4219 14.7656 75.4688 14.7656 75.4688Z" fill="#F7A4A4"/>
<path d="M23.9062 68.4375L38.9063 49.2187C38.9063 49.2187 32.8125 37.5 18.75 30C26.7188 47.5781 23.9062 68.4375 23.9062 68.4375Z" fill="#F78D8D"/>
<path d="M136.406 119.062C138.281 116.953 139.688 115.312 140.391 113.906C144.141 107.812 145.312 101.484 145.312 101.484L140.625 102.422C140.625 102.422 146.016 96.5625 144.609 84.1406L139.922 89.0625C139.922 89.0625 144.375 76.4063 140.625 64.6875L135.469 68.4375C135.469 68.4375 137.109 63.75 135.703 60.4687L133.594 62.1094C133.594 62.1094 137.578 51.0937 134.063 46.6406C131.953 53.2031 129.609 53.2031 129.609 53.2031C129.609 53.2031 132.422 48.2813 130.312 46.1719C127.969 49.9219 126.094 47.5781 126.094 46.4062C126.328 45 125.625 42.8906 132.422 41.7187C127.031 38.4375 120.469 40.7812 120.469 40.7812C120.469 40.7812 120.703 37.2656 125.391 37.5C120.938 33.75 114.844 36.0937 114.844 36.0937C105.234 28.8281 92.3437 24.6094 74.7656 24.6094C57.4219 24.6094 44.5312 28.8281 34.6875 36.0937C34.6875 36.0937 28.5938 33.9844 24.1406 37.5C28.8281 37.2656 29.0625 40.7812 29.0625 40.7812C29.0625 40.7812 22.7344 38.4375 17.1094 41.7187C23.9063 42.6562 23.4375 44.7656 23.4375 46.4062C23.4375 47.5781 21.5625 49.9219 19.2187 46.1719C16.875 48.2813 19.9219 53.2031 19.9219 53.2031C19.9219 53.2031 17.5781 53.2031 15.4687 46.6406C11.9531 51.3281 15.9375 62.1094 15.9375 62.1094L13.8281 60.4687C12.4219 63.75 14.0625 68.4375 14.0625 68.4375L9.375 64.6875C5.39062 76.4063 10.0781 89.0625 10.0781 89.0625L5.625 84.1406C3.98438 96.5625 9.375 102.422 9.375 102.422L4.6875 101.484C4.6875 101.484 5.85937 107.812 9.60937 113.906C10.0781 115.078 11.4844 116.953 13.5938 119.062L13.8281 119.297C23.4375 128.906 47.1094 145.312 75 145.312C102.891 145.312 126.562 128.906 136.172 119.297C136.172 119.063 136.406 119.062 136.406 119.062Z" fill="#DADEE0"/>
<path d="M88.3594 25.3125C84.1406 24.6094 79.6875 24.375 75 24.375C70.3125 24.375 65.8594 24.6094 61.6406 25.3125C63.2812 34.4531 68.2031 40.7812 75 52.5C82.0312 40.5469 86.7187 34.2188 88.3594 25.3125M109.687 32.3438C105.234 29.7656 100.078 27.8906 94.4531 26.4844C95.8594 31.875 98.9062 35.625 102.891 42.6563C105.937 37.7344 108.047 36.3281 109.687 32.3438ZM55.5469 26.4844C49.6875 27.8906 44.7656 29.7656 40.3125 32.3438C41.9531 36.5625 44.2969 37.7344 47.1094 42.6563C51.3281 35.3906 54.1406 31.6406 55.5469 26.4844Z" fill="#94989B"/>
<path d="M84.0013 91.2697L84.0111 91.2807L84.0214 91.2911C84.5176 91.7872 84.7032 92.8845 84.1928 94.4441C83.6959 95.9624 82.5765 97.7683 80.7518 99.479L80.7459 99.4845L80.7402 99.4902C78.7235 101.507 76.5065 102.156 75 102.156C73.5111 102.156 71.5198 101.52 69.2505 99.4809C67.537 97.7651 66.4166 96.0139 65.8916 94.5215C65.3572 93.0029 65.4762 91.8829 66.0018 91.2662C66.394 90.8267 67.0251 90.4537 67.8277 90.1488C68.6252 89.8458 69.5502 89.6256 70.4838 89.4676C72.351 89.1516 74.1959 89.0938 75 89.0938C75.8041 89.0938 77.649 89.1516 79.5162 89.4676C80.4498 89.6256 81.3747 89.8458 82.1723 90.1488C82.977 90.4545 83.6093 90.8287 84.0013 91.2697Z" fill="#F7A4A4" stroke="black"/>
<path d="M56.9531 72.1875C56.9531 72.1875 55.7812 63.75 46.4062 60.4688C35.8594 56.4844 28.5938 63.75 26.4844 69.1406C23.6719 77.1094 27.1875 85.7813 28.3594 87.8906C29.0625 89.2969 37.0312 95.3906 54.6094 89.5313C54.6094 89.5313 59.0625 80.625 56.9531 72.1875" fill="white"/>
<path d="M56.9531 72.1875C56.9531 72.1875 43.125 60.9375 42.1875 60.9375C38.6719 60.9375 35.625 60 33.0469 62.3437C30.4687 64.6875 28.5937 67.7344 27.6562 71.0156C26.7187 74.2969 26.9531 78.0469 27.6562 81.3281C28.125 82.9687 28.5937 84.8437 29.2969 86.4844L29.5312 86.9531C29.5312 86.7187 29.5312 86.9531 29.5312 86.9531L29.7656 87.1875C30 87.4219 30.2344 87.6562 30.7031 87.8906C31.4062 88.3594 32.1094 88.8281 32.8125 89.0625C36.0937 90.4687 39.6094 90.9375 43.3594 90.9375C47.1094 90.9375 50.8594 90.2344 54.6094 89.2969C51.0937 90.9375 47.3437 91.875 43.5937 92.5781C39.8437 93.0469 35.625 93.0469 31.875 91.6406C30.9375 91.4062 30 90.9375 29.0625 90.2344C28.5937 90 28.125 89.5312 27.6562 89.2969C27.4219 89.2969 27.4219 89.0625 27.1875 88.8281L26.9531 88.5937L26.7187 88.3594L26.25 87.6562C25.3125 85.7812 24.6094 83.9062 24.1406 82.0312C23.2031 78.2812 22.9687 74.0625 23.9062 70.0781C25.0781 66.0937 27.4219 62.5781 30.4687 59.7656C33.5156 57.1875 37.7344 57.6562 41.9531 58.125C43.3594 58.3594 56.9531 72.1875 56.9531 72.1875" fill="#B2B6B8"/>
<path d="M93.0469 72.1875C93.0469 72.1875 94.2188 63.75 103.594 60.4688C114.141 56.4844 121.406 63.75 123.516 69.1406C126.328 77.1094 122.813 85.7813 121.641 87.8906C120.938 89.2969 112.969 95.3906 95.3906 89.5313C95.3906 89.5313 90.9375 80.625 93.0469 72.1875" fill="white"/>
<path d="M93.0469 72.1875C93.0469 72.1875 106.641 58.3594 107.578 58.125C111.797 57.6562 116.016 57.1875 119.062 59.7656C122.109 62.5781 124.453 65.8594 125.625 70.0781C126.562 74.0625 126.328 78.2812 125.391 82.2656C124.922 84.1406 124.219 86.0156 123.281 87.8906L122.813 88.5937L122.578 88.8281V89.0625L122.109 89.5312C121.641 90 121.172 90.2344 120.703 90.4687L117.891 91.875C113.906 93.2812 109.922 93.2812 106.172 92.8125C102.422 92.1094 98.6719 91.1719 95.1562 89.5312C98.9062 90.2344 102.656 90.9375 106.406 91.1719C110.156 91.1719 113.906 90.7031 116.953 89.2969C117.656 89.0625 118.594 88.5937 119.062 88.125C119.297 87.8906 119.766 87.6562 120 87.4219L120.234 87.1875L120.469 86.7187C121.172 85.0781 121.641 83.4375 122.109 81.5625C122.812 78.0469 123.047 74.5312 122.109 71.25C121.172 67.9687 119.297 64.9219 116.719 62.5781C114.141 60.2344 111.094 61.1719 107.578 61.1719C106.875 60.9375 93.0469 72.1875 93.0469 72.1875" fill="#B2B6B8"/>
<path d="M103.125 86.7188C108.303 86.7188 112.5 81.9968 112.5 76.1719C112.5 70.347 108.303 65.625 103.125 65.625C97.9473 65.625 93.75 70.347 93.75 76.1719C93.75 81.9968 97.9473 86.7188 103.125 86.7188Z" fill="#4C5359"/>
<path d="M46.875 86.7188C52.0527 86.7188 56.25 81.9968 56.25 76.1719C56.25 70.347 52.0527 65.625 46.875 65.625C41.6973 65.625 37.5 70.347 37.5 76.1719C37.5 81.9968 41.6973 86.7188 46.875 86.7188Z" fill="#4C5359"/>
<path d="M131.016 57.4219C126.563 57.8906 122.813 58.5937 118.828 59.5312C115.078 60.4687 111.563 61.875 108.047 63.5156C104.531 65.1562 101.25 67.0312 98.2031 69.1406C94.9219 71.4844 92.1094 74.0625 88.8281 77.1094C89.2969 72.6563 91.4063 68.4375 94.4531 65.1562C97.2656 61.6406 101.25 59.0625 105.234 57.1875C109.453 55.3125 113.906 54.1406 118.359 54.1406C122.813 54.1406 127.266 55.0781 131.016 57.4219M18.9844 57.4219C22.7344 55.0781 27.1875 53.9062 31.6406 54.1406C36.0938 54.1406 40.5469 55.3125 44.7656 57.1875C48.75 59.0625 52.5 61.875 55.5469 65.1562C58.3594 68.6719 60.7031 72.6563 61.1719 77.1094C58.125 74.0625 55.0781 71.4844 51.7969 69.1406C48.5156 66.7969 45.2344 64.9219 41.9531 63.5156C38.4375 61.875 34.9219 60.7031 31.1719 59.5312C27.1875 58.5937 23.4375 57.8906 18.9844 57.4219M60.4688 125.391C74.0625 128.672 95.8594 125.391 106.875 117.187C109.688 115.078 104.063 107.813 101.484 109.922C93.9844 115.313 75.2344 119.531 62.5781 116.719C59.2969 115.781 56.9531 124.453 60.4688 125.391" fill="#4C5359"/>
</svg>
