<svg  viewBox="0 0 26 35" fill="none" xmlns="http://www.w3.org/2000/svg">
<path d="M18.3 8.1L13 2.8L7.70005 8.1L6.30005 6.7L13 0L19.7001 6.7L18.3 8.1Z" fill="black"/>
<path d="M12 1.40002H14V22.4H12V1.40002Z" fill="black"/>
<path d="M23 34.4H3C1.3 34.4 0 33.1 0 31.4V13.4C0 11.7 1.3 10.4 3 10.4H10V12.4H3C2.4 12.4 2 12.8 2 13.4V31.4C2 32 2.4 32.4 3 32.4H23C23.6 32.4 24 32 24 31.4V13.4C24 12.8 23.6 12.4 23 12.4H16V10.4H23C24.7 10.4 26 11.7 26 13.4V31.4C26 33.1 24.7 34.4 23 34.4Z" fill="black"/>
</svg>
